<svg xmlns="http://www.w3.org/2000/svg" xmlns:xlink="http://www.w3.org/1999/xlink" version="1.1" x="0px" y="0px" style="enable-background:new 0 0 100 100;" xml:space="preserve" viewBox="25.93 5 48.14 90"><path d="M50.033,17.998l0.366,2.962h-3.569l0.366-2.962c0.46,0.084,0.931,0.136,1.413,0.136  C49.101,18.134,49.572,18.081,50.033,17.998z"/><path d="M70.639,82.149c1.894,0,3.433,1.549,3.433,3.443c0,1.894-1.538,3.433-3.433,3.433H54.313c-0.408,0-0.774,0.23-0.942,0.607  c-0.178,0.366-0.115,0.795,0.147,1.109c0.283,0.345,0.617,0.91,0.617,1.674c0,1.423-1.151,2.585-2.574,2.585h-9.743  c-1.423,0-2.585-1.162-2.585-2.585c0-1.235,0.897-2.293,2.103-2.523c0.856-0.163,2.227,0.302,2.669-0.722  c0.167-0.387,0.073-0.837-0.241-1.141c-0.659-0.638-1.015-1.507-1.015-2.438c0-0.91,0.345-1.769,0.984-2.407  c0.293-0.303,0.387-0.753,0.22-1.141c-0.167-0.387-0.544-0.638-0.963-0.638h-5.724c-2.742,0-4.981-2.24-4.981-4.981  c0-2.752,2.24-4.981,4.981-4.981c0,0,4.469,0,4.469,0c0.019,1.126,0.038,2.252,0.058,3.377c0.024,1.392-0.335,3.237,1.647,3.219  c2.409-0.022,4.818-0.031,7.227-0.041c1.288-0.006,3.98,0.641,4.585-0.726c0.22-0.497,0.382-5.83,0.318-5.83c0,0,5.337,0,5.337,0  c2.742,0,4.981,2.229,4.981,4.981c0,1.497-0.68,2.909-1.852,3.872c-0.345,0.283-0.481,0.743-0.335,1.162  c0.157,0.419,0.544,0.691,0.994,0.691H70.639z"/><path d="M53.884,49.466l-0.492,26.435h-3.736V53.443l3.359-4.217C53.308,49.309,53.601,49.372,53.884,49.466z"/><path d="M50.703,48.765l-2.093,2.627l-2.083-2.616C47.908,48.608,49.311,48.598,50.703,48.765z"/><path d="M47.563,53.443v22.458h-3.652l-0.492-26.445c0.262-0.084,0.534-0.147,0.795-0.22L47.563,53.443z"/><path d="M56.375,48.2c-4.72-2.198-10.643-2.24-15.541,0.042c-2.501,1.172-4.657,2.763-6.426,4.73  c-0.638,0.712-1.528,1.245-2.564,1.538l-4.019,1.12c0,0-0.837,0.115-1.277,0.01c-0.021-0.021-0.052-0.105-0.063-0.147  c0-0.031,0-0.073-0.01-0.105l-0.523-2.909c-0.126-0.733,0.251-1.465,0.984-1.926c3.433-2.114,7.179-3.799,11.135-5.002  c1.266-0.387,2.564-0.722,3.862-1.005c4.385-0.963,9.042-0.963,13.427,0c1.298,0.283,2.595,0.617,3.862,1.005  c3.956,1.203,7.713,2.888,11.135,5.002c0.733,0.46,1.109,1.193,0.984,1.926l-0.534,2.993c0,0.063-0.042,0.147-0.073,0.167  c-0.377,0.105-1.183,0-1.203,0l-4.071-1.13c-1.047-0.293-1.936-0.827-2.574-1.538C61.115,51.005,58.96,49.414,56.375,48.2z"/><path d="M52.607,39.012l0.366,3.014c-2.888-0.377-5.84-0.377-8.717,0.01l0.366-3.024H52.607z"/><polygon points="51.958,33.695 52.346,36.919 44.874,36.919 45.271,33.695 "/><polygon points="51.299,28.369 51.697,31.602 45.533,31.602 45.931,28.369 "/><polygon points="50.65,23.052 51.048,26.276 46.182,26.276 46.579,23.052 "/><path d="M43.094,10.515C43.094,7.48,45.575,5,48.61,5c3.045,0,5.526,2.48,5.526,5.515c0,3.045-2.48,5.526-5.526,5.526  C45.575,16.041,43.094,13.56,43.094,10.515z M48.61,6.926c-1.978,0-3.59,1.612-3.59,3.59c0,1.988,1.612,3.6,3.59,3.6  c1.988,0,3.6-1.612,3.6-3.6C52.21,8.537,50.598,6.926,48.61,6.926z"/><path d="M48.61,9.019c0.827,0,1.507,0.68,1.507,1.497c0,0.827-0.68,1.507-1.507,1.507c-0.816,0-1.497-0.68-1.497-1.507  C47.113,9.699,47.793,9.019,48.61,9.019z"/></svg>